<?xml version="1.0" standalone="no"?>
<!DOCTYPE svg PUBLIC "-//W3C//DTD SVG 20010904//EN"
 "http://www.w3.org/TR/2001/REC-SVG-20010904/DTD/svg10.dtd">
<svg version="1.0" xmlns="http://www.w3.org/2000/svg"
 width="512.000000pt" height="512.000000pt" viewBox="0 0 512.000000 512.000000"
 preserveAspectRatio="xMidYMid meet">

<g transform="translate(0.000000,512.000000) scale(0.100000,-0.100000)"
fill="#000000" stroke="none">
<path d="M2527 4603 c-4 -3 -7 -619 -7 -1367 0 -1179 -2 -1370 -15 -1425 -44
-187 -199 -342 -386 -386 -276 -65 -558 110 -624 386 -65 279 110 559 391 625
67 16 145 15 257 -2 l37 -6 0 371 c0 345 -1 372 -17 379 -37 15 -316 7 -403
-11 -256 -55 -473 -171 -650 -348 -178 -178 -293 -394 -352 -664 -21 -99 -16
-381 9 -490 79 -337 267 -607 550 -792 193 -126 395 -190 633 -200 388 -17
760 147 1009 443 164 196 260 415 290 664 7 52 11 349 11 767 l0 682 83 -53
c185 -116 523 -214 756 -219 l76 -2 3 340 c1 187 0 350 -3 361 -4 19 -15 22
-87 29 -192 16 -391 93 -519 198 -111 92 -206 238 -258 396 -26 79 -51 210
-51 265 0 23 -5 47 -12 54 -9 9 -103 12 -363 12 -194 0 -355 -3 -358 -7z m687
-110 c21 -210 115 -429 245 -575 128 -143 341 -246 579 -278 l92 -13 0 -313
c0 -283 -2 -314 -16 -314 -36 0 -234 32 -319 52 -187 43 -365 119 -489 209
-37 28 -74 48 -82 45 -11 -4 -14 -144 -17 -778 -3 -679 -6 -781 -20 -841 -95
-386 -320 -676 -655 -842 -663 -328 -1463 17 -1687 727 -211 669 206 1385 895
1539 95 21 297 35 353 25 l37 -7 0 -320 0 -319 -78 6 c-282 24 -542 -164 -607
-437 -91 -386 243 -748 638 -691 227 32 425 217 472 439 12 57 15 284 15 1411
l0 1342 319 0 318 0 7 -67z"/>
</g>
</svg>
